<?xml version="1.0" standalone="no"?>
<!DOCTYPE svg PUBLIC "-//W3C//DTD SVG 20010904//EN"
 "http://www.w3.org/TR/2001/REC-SVG-20010904/DTD/svg10.dtd">
<svg version="1.0" xmlns="http://www.w3.org/2000/svg"
 width="750.000000pt" height="773.000000pt" viewBox="0 0 750.000000 773.000000"
 preserveAspectRatio="xMidYMid meet">

<g transform="translate(0.000000,773.000000) scale(0.100000,-0.100000)"
fill="#000000" stroke="none">
<path d="M3485 7493 c-350 -24 -788 -121 -1125 -250 -1126 -430 -1889 -1336
-2119 -2516 -171 -879 -60 -1787 308 -2527 502 -1008 1471 -1704 2605 -1871
525 -77 974 -42 1731 132 543 126 682 148 965 156 359 10 657 -37 1045 -164
151 -50 213 -57 278 -30 81 34 88 99 27 238 -57 129 -150 411 -199 604 -107
423 -180 909 -212 1407 -15 240 -6 868 15 1048 35 297 92 552 161 730 20 52
44 118 52 146 30 99 -8 174 -87 174 -53 0 -97 -23 -233 -124 -855 -630 -1558
-965 -2417 -1150 -214 -47 -232 -52 -264 -77 -42 -33 -59 -75 -53 -130 8 -64
32 -108 153 -279 401 -567 667 -1116 764 -1575 30 -144 38 -386 16 -487 -43
-191 -166 -278 -338 -238 -68 16 -193 77 -277 137 -83 59 -279 250 -379 368
-731 869 -1584 2704 -1841 3960 -134 657 -119 1201 43 1523 170 338 475 426
856 246 179 -85 407 -258 581 -441 145 -152 332 -466 408 -686 56 -160 75
-273 75 -457 1 -180 -9 -250 -55 -393 -59 -182 -165 -354 -322 -525 -109 -119
-122 -176 -55 -243 86 -86 419 -186 733 -220 119 -13 356 -7 465 11 511 85
925 377 1149 810 122 236 171 429 178 706 10 339 -46 613 -179 879 -304 606
-984 1009 -1850 1100 -133 14 -456 18 -603 8z"/>
</g>
</svg>
